<svg xmlns="http://www.w3.org/2000/svg" viewBox="0 0 900 600">
  <!-- Blue background -->
  <rect width="900" height="600" fill="#003399"/>
  <!-- Yellow stars in circle -->
  <circle cx="450" cy="300" r="200" fill="none"/>
  <!-- 12 stars arranged in circle -->
  <g fill="#FFD700">
    <polygon points="450,120 460,160 502,160 470,185 480,225 450,200 420,225 430,185 398,160 440,160"/>
    <polygon points="593,153 603,193 645,193 613,218 623,258 593,233 563,258 573,218 541,193 583,193"/>
    <polygon points="658,262 668,302 710,302 678,327 688,367 658,342 628,367 638,327 606,302 648,302"/>
    <polygon points="658,398 668,438 710,438 678,463 688,503 658,478 628,503 638,463 606,438 648,438"/>
    <polygon points="593,507 603,547 645,547 613,572 623,612 593,587 563,612 573,572 541,547 583,547"/>
    <polygon points="450,540 460,580 502,580 470,605 480,645 450,620 420,645 430,605 398,580 440,580"/>
    <polygon points="307,507 317,547 359,547 327,572 337,612 307,587 277,612 287,572 255,547 297,547"/>
    <polygon points="242,398 252,438 294,438 262,463 272,503 242,478 212,503 222,463 190,438 232,438"/>
    <polygon points="242,262 252,302 294,302 262,327 272,367 242,342 212,367 222,327 190,302 232,302"/>
  </g>
</svg>
